<?xml version="1.0" encoding="UTF-8" standalone="no"?>
<svg
   xmlns:dc="http://purl.org/dc/elements/1.1/"
   xmlns:cc="http://creativecommons.org/ns#"
   xmlns:rdf="http://www.w3.org/1999/02/22-rdf-syntax-ns#"
   xmlns:svg="http://www.w3.org/2000/svg"
   xmlns="http://www.w3.org/2000/svg"
   xmlns:sodipodi="http://sodipodi.sourceforge.net/DTD/sodipodi-0.dtd"
   xmlns:inkscape="http://www.inkscape.org/namespaces/inkscape"
   class="header__svg-logo header__svg-logo"
   viewBox="0 0 56.797574 70.185714"
   preserveAspectRatio="xMinYMin meet"
   width="25"
   height="25"
   version="1.1"
   id="svg59"
   sodipodi:docname="bitbucket.svg"
   inkscape:version="0.92.3 (2405546, 2018-03-11)">
  <metadata
     id="metadata63">
    <rdf:RDF>
      <cc:Work
         rdf:about="">
        <dc:format>image/svg+xml</dc:format>
        <dc:type
           rdf:resource="http://purl.org/dc/dcmitype/StillImage" />
        <dc:title>Bitbucket logo</dc:title>
      </cc:Work>
    </rdf:RDF>
  </metadata>
  <sodipodi:namedview
     pagecolor="#ffffff"
     bordercolor="#666666"
     borderopacity="1"
     objecttolerance="10"
     gridtolerance="10"
     guidetolerance="10"
     inkscape:pageopacity="0"
     inkscape:pageshadow="2"
     inkscape:window-width="1232"
     inkscape:window-height="787"
     id="namedview61"
     showgrid="false"
     inkscape:zoom="11.332258"
     inkscape:cx="32.022322"
     inkscape:cy="19.698096"
     inkscape:window-x="68"
     inkscape:window-y="87"
     inkscape:window-maximized="0"
     inkscape:current-layer="svg59"
     inkscape:pagecheckerboard="true" />
  <defs
     id="defs9">
    <style
       id="style2"> .logo__text__fill{fill:#253858;} .header__svg-logo__icon--path--3{fill:#2684ff;} .header__svg-logo__icon--path--4{fill:url(#logo-gradient);} </style>
    <linearGradient
       id="logo-gradient"
       gradientUnits="userSpaceOnUse"
       x1="64.010002"
       y1="65.260002"
       x2="32.990002"
       y2="89.480003">
      <stop
         stop-color="rgb(0, 82, 204)"
         offset="0.18"
         id="stop4" />
      <stop
         stop-color="rgb(38, 132, 255)"
         offset="1"
         id="stop6" />
    </linearGradient>
  </defs>
  <title
     id="title11">Bitbucket logo</title>
  <g
     id="g874"
     transform="matrix(1.124022,0,0,1.124022,0.02899071,-42.824348)">
    <path
       class="header__svg-logo__icon--path--3"
       d="m 2,41.25 a 2,2 0 0 0 -2,2.32 l 8.49,51.54 a 2.72,2.72 0 0 0 2.66,2.27 h 40.73 a 2,2 0 0 0 2,-1.68 l 8.51,-52.11 a 2,2 0 0 0 -2,-2.32 z M 37.75,78.5 h -13 L 21.23,60.12 H 40.9 Z"
       id="path13"
       inkscape:connector-curvature="0"
       style="fill:#ffffff;fill-opacity:0.50588223" />
    <path
       class="header__svg-logo__icon--path--4"
       d="M 59.67,60.12 H 40.9 L 37.75,78.5 h -13 L 9.4,96.73 a 2.71,2.71 0 0 0 1.75,0.66 h 40.74 a 2,2 0 0 0 2,-1.68 z"
       id="path15"
       style="fill:#ffffff;fill-opacity:1"
       inkscape:connector-curvature="0" />
  </g>
</svg>
