<?xml version="1.0" encoding="UTF-8" standalone="no"?>
<svg
   xmlns:dc="http://purl.org/dc/elements/1.1/"
   xmlns:cc="http://creativecommons.org/ns#"
   xmlns:rdf="http://www.w3.org/1999/02/22-rdf-syntax-ns#"
   xmlns:svg="http://www.w3.org/2000/svg"
   xmlns="http://www.w3.org/2000/svg"
   xmlns:sodipodi="http://sodipodi.sourceforge.net/DTD/sodipodi-0.dtd"
   xmlns:inkscape="http://www.inkscape.org/namespaces/inkscape"
   width="64"
   height="64"
   viewBox="0 0 64 64"
   version="1.1"
   id="svg4"
   sodipodi:docname="browser.svg"
   inkscape:version="0.92.3 (2405546, 2018-03-11)">
  <metadata
     id="metadata10">
    <rdf:RDF>
      <cc:Work
         rdf:about="">
        <dc:format>image/svg+xml</dc:format>
        <dc:type
           rdf:resource="http://purl.org/dc/dcmitype/StillImage" />
        <dc:title></dc:title>
      </cc:Work>
    </rdf:RDF>
  </metadata>
  <defs
     id="defs8" />
  <sodipodi:namedview
     pagecolor="#ffffff"
     bordercolor="#666666"
     borderopacity="1"
     objecttolerance="10"
     gridtolerance="10"
     guidetolerance="10"
     inkscape:pageopacity="0"
     inkscape:pageshadow="2"
     inkscape:window-width="1347"
     inkscape:window-height="815"
     id="namedview6"
     showgrid="false"
     inkscape:pagecheckerboard="true"
     inkscape:zoom="5.9599"
     inkscape:cx="10.277478"
     inkscape:cy="25.716025"
     inkscape:window-x="0"
     inkscape:window-y="0"
     inkscape:window-maximized="0"
     inkscape:current-layer="svg4" />
  <g
     id="g838"
     transform="matrix(0.04166667,0,0,0.04166667,-5.3333338,-5.3333389)">
    <path
       id="path12"
       d="M 815.24219,273.84375 C 807.91406,273.69792 802.5,275.08333 799,278 c -3.33333,4.66667 -5.16667,8.5 -5.5,11.5 -0.33333,3 1.33333,5.66667 5,8 3.66667,2.33333 7.16667,4.16667 10.5,5.5 3.33333,1.33333 7.16667,2.66667 11.5,4 4.33333,1.33333 7.16667,2.33333 8.5,3 9.33333,6.66667 12,11.33333 8,14 -1.33333,0.66667 -4.16667,1.83333 -8.5,3.5 -4.33333,1.66667 -8.16667,3.16667 -11.5,4.5 -3.33333,1.33333 -5.33333,2.66667 -6,4 -2,2.66667 -2,7.33333 0,14 2,6.66667 1.33333,11.33333 -2,14 -3.33333,-3.33333 -6.33333,-9.16667 -9,-17.5 -2.37824,-7.43199 -4.48991,-12.59467 -6.33789,-15.51953 C 796.67357,336.21239 788.12374,337.8866 768,336 l -10,-1 c -2.66667,0 -8,0.66667 -16,2 -8,1.33333 -14.83333,1.66667 -20.5,1 -5.66667,-0.66667 -10.16667,-3.33333 -13.5,-8 -2.66667,-5.33333 -2.66667,-12 0,-20 0.66667,-2.66667 2,-3.33333 4,-2 -2.66667,-2 -6.33333,-5.16667 -11,-9.5 -4.66667,-4.33333 -8,-7.16667 -10,-8.5 -30.66667,10 -62,23.66667 -94,41 4,0.66667 8,0.33333 12,-1 3.33333,-1.33333 7.66667,-3.5 13,-6.5 5.33333,-3 8.66667,-4.83333 10,-5.5 22.66667,-9.33333 36.66667,-11.66667 42,-7 l 5,-5 c 9.33333,10.66667 16,19 20,25 -4.66667,-2.66667 -14.66667,-3 -30,-1 -13.33333,4 -20.66667,8 -22,12 4.66667,8 6.33333,14 5,18 -2.66667,-2 -6.5,-5.33333 -11.5,-10 -5,-4.66667 -9.83333,-8.33333 -14.5,-11 -4.66667,-2.66667 -9.66667,-4.33333 -15,-5 -10.66667,0 -18,0.33333 -22,1 -97.33333,53.33333 -175.66667,127.33333 -235,222 4.66667,4.66667 8.66667,7.33333 12,8 2.66667,0.66667 4.33333,3.66667 5,9 0.66667,5.33333 1.5,9 2.5,11 1,2 4.83333,1 11.5,-3 6,5.33333 7,11.66667 3,19 0.66667,-0.66667 15.33333,8.33333 44,27 12.66667,11.33333 19.66667,18.33333 21,21 2,7.33333 -1.33333,13.33333 -10,18 -0.66667,-1.33333 -3.66667,-4.33333 -9,-9 -5.33333,-4.66667 -8.33333,-6 -9,-4 -2,3.33333 -1.83333,9.5 0.5,18.5 2.18444,8.42568 5.39162,12.61498 9.62109,12.56836 C 435.40811,685.02447 435.70064,685 436,685 c -0.2978,0.0425 -0.59061,0.0652 -0.87891,0.0684 -4.1872,0.64036 -7.06134,5.94923 -8.62109,15.93164 -1.66667,10.66667 -2.5,22.5 -2.5,35.5 0,13 -0.33333,20.83333 -1,23.5 l 2,1 c -2,8 -0.16667,19.5 5.5,34.5 5.66667,15 12.83333,21.5 21.5,19.5 -8.66667,2 -2,16.33333 20,43 4,5.33333 6.66667,8.33333 8,9 2,1.33333 6,3.83333 12,7.5 6,3.66667 11,7 15,10 4,3 7.33333,6.5 10,10.5 2.66667,3.33333 6,10.83333 10,22.5 4,11.66667 8.66667,19.5 14,23.5 -1.33333,4 1.83333,10.66667 9.5,20 7.66667,9.33333 11.16667,17 10.5,23 -0.66667,0 -1.5,0.33333 -2.5,1 -1,0.66667 -1.83333,1 -2.5,1 2,4.66667 7.16667,9.33333 15.5,13.99996 8.33333,4.6667 13.5,9 15.5,13 0.66667,2 1.33333,5.3333 2,10 0.66667,4.6667 1.66667,8.3333 3,11 1.33333,2.6667 4,3.3333 8,2 1.33333,-13.3333 -6.66667,-34 -24,-61.99996 -10,-16.66667 -15.66667,-26.33333 -17,-29 -2,-3.33333 -3.83333,-8.5 -5.5,-15.5 -1.66667,-7 -3.16667,-11.83333 -4.5,-14.5 1.33333,0 3.33333,0.5 6,1.5 2.66667,1 5.5,2.16667 8.5,3.5 3,1.33333 5.5,2.66667 7.5,4 2,1.33333 2.66667,2.33333 2,3 -2,4.66667 -1.33333,10.5 2,17.5 3.33333,7 7.33333,13.16667 12,18.5 4.66667,5.33333 10.33333,11.66667 17,19 6.66667,7.33333 10.66667,11.66667 12,13 4,4 8.66667,10.49996 14,19.49996 5.33333,9 5.33333,13.5 0,13.5 6,0 12.66667,3.5 20,10.5 7.33333,7 13,13.5 17,19.5 3.33333,5.3333 6,14 8,26 2,12 3.66667,20 5,24 1.33333,4.6667 4.16667,9.1667 8.5,13.5 4.33333,4.3333 8.5,7.5 12.5,9.5 l 16,8 13,7 c 3.33333,1.3333 9.5,4.8333 18.5,10.5 9,5.6667 16.16667,9.5 21.5,11.5 6.66667,2.6667 12,4 16,4 4,0 8.83333,-0.8333 14.5,-2.5 5.66667,-1.6667 10.16667,-2.8333 13.5,-3.5 10,-1.3333 19.66667,3.6667 29,15 9.33333,11.3333 16.33333,18.3333 21,21 24,12.6667 42.33333,16.3333 55,11 -1.33333,0.6667 -1.16667,3.1667 0.5,7.5 1.66667,4.3333 4.33333,9.5 8,15.5 3.66667,6 6.66667,10.8333 9,14.5 2.33333,3.6667 4.16667,6.5 5.5,8.5 3.33333,4 9.33333,9 18,15 8.66667,6 14.66667,11 18,15 3.40674,-2.2712 5.59318,-4.7863 6.58203,-7.541 0.10934,-0.4956 0.24004,-0.9845 0.41797,-1.459 -0.0989,0.4944 -0.24577,0.9793 -0.41797,1.459 -1.11966,5.075 1.34439,11.2527 7.41797,18.541 6.66667,8 12.6667,11.3333 18,10 9.3333,-2 14,-12.6667 14,-32 -20.6667,10 -37,4 -49,-18 0,-0.6667 -0.83333,-2.5 -2.5,-5.5 -1.66667,-3 -3,-5.8333 -4,-8.5 -1,-2.6667 -1.83333,-5.5 -2.5,-8.5 -0.66667,-3 -0.66667,-5.5 0,-7.5 0.66667,-2 2.33333,-3 5,-3 6,0 9.33333,-1.1667 10,-3.5 0.66667,-2.3333 0,-6.5 -2,-12.5 -2,-6 -3.33333,-10.3333 -4,-13 -0.66667,-5.3333 -4.33333,-12 -11,-20 -6.66667,-8 -10.66667,-13 -12,-15 -3.33333,6 -8.66667,8.6667 -16,8 -7.33333,-0.6667 -12.66667,-3.6667 -16,-9 0,0.6667 -0.5,2.5 -1.5,5.5 -1,3 -1.5,5.1667 -1.5,6.5 -8.66667,0 -13.66667,-0.3333 -15,-1 0.66667,-2 1.5,-7.8333 2.5,-17.5 1,-9.6667 2.16667,-17.1667 3.5,-22.5 0.66667,-2.6667 2.5,-6.6667 5.5,-12 3,-5.3333 5.5,-10.1667 7.5,-14.5 2,-4.3333 3.33333,-8.5 4,-12.5 0.66667,-4 -0.83333,-7.1667 -4.5,-9.5 -3.66667,-2.3333 -9.5,-3.1667 -17.5,-2.5 -12.66667,0.6667 -21.33333,7.3333 -26,20 -0.66667,2 -1.66667,5.5 -3,10.5 -1.33333,5 -3,8.8333 -5,11.5 -2,2.6667 -5,5 -9,7 -4.66667,2 -12.66667,2.6667 -24,2 -11.33333,-0.6667 -19.33333,-2.3333 -24,-5 -8.66667,-5.3333 -16.16667,-15 -22.5,-29 -6.33333,-14 -9.5,-26.3333 -9.5,-37 0,-6.6667 0.83333,-15.5 2.5,-26.5 1.66667,-11 2.66667,-19.3333 3,-25 0.33333,-5.6667 -1.5,-13.83329 -5.5,-24.49996 2,-1.33333 5,-4.5 9,-9.5 4,-5 7.33333,-8.5 10,-10.5 1.33333,-0.66667 2.83333,-1.16667 4.5,-1.5 1.66667,-0.33333 3.16667,-0.33333 4.5,0 1.33333,0.33333 2.66667,-0.16667 4,-1.5 1.33333,-1.33333 2.33333,-3.33333 3,-6 -0.66667,-0.66667 -2,-1.66667 -4,-3 -1.40625,-1.40625 -2.46387,-2.28955 -3.21094,-2.70703 C 807.51492,951.2011 807.24705,951.10588 807,951 c 0.19792,0 0.47363,0.1167 0.78906,0.29297 4.90427,1.64344 14.1364,1.04821 27.71094,-1.79297 14.33333,-3 23.5,-2.5 27.5,1.5 10,7.33333 17.33333,6.66667 22,-2 0,-0.66667 -0.83333,-3.83333 -2.5,-9.5 -1.66667,-5.66667 -1.83333,-10.16667 -0.5,-13.5 3.33333,18 13,21 29,9 2,2 7.16667,3.66667 15.5,5 8.33333,1.33333 14.16667,3 17.5,5 2,1.33333 4.33333,3.16667 7,5.5 2.66667,2.33333 4.5,3.83333 5.5,4.5 1,0.66667 2.66667,0.5 5,-0.5 2.33333,-1 5.16667,-3.16667 8.5,-6.5 6.66667,9.33333 10.66667,17.33333 12,24 7.33333,26.66667 13.66667,41.3333 19,44 4.6667,2 8.3333,2.6667 11,2 2.6667,-0.6667 4.1667,-3.8333 4.5,-9.5 0.3333,-5.6667 0.3333,-10.33333 0,-14 -0.3333,-3.66667 -0.8333,-7.83333 -1.5,-12.5 l -1,-8 v -18 l -1,-8 c -10,-2 -16.16667,-6 -18.5,-12 -2.33333,-6 -1.83333,-12.16667 1.5,-18.5 3.33333,-6.33333 8.3333,-12.5 15,-18.5 0.6667,-0.66667 3.3333,-1.83333 8,-3.5 4.6667,-1.66667 9.8333,-3.83333 15.5,-6.5 5.6667,-2.66667 9.8333,-5.33333 12.5,-8 14,-12.66667 19,-24.33333 15,-35 4.6667,0 8.3333,-3 11,-9 -0.6667,0 -2.3333,-1 -5,-3 -2.6667,-2 -5.1667,-3.66667 -7.5,-5 -2.3333,-1.33333 -3.8333,-2 -4.5,-2 6,-3.33333 6.6667,-8.66667 2,-16 3.3333,-2 5.8333,-5.66667 7.5,-11 1.6667,-5.33333 4.1667,-8.66667 7.5,-10 6,8 13,8.66667 21,2 5.3333,-5.33333 5.6667,-10.66667 1,-16 3.3333,-4.66667 10.1667,-8.16667 20.5,-10.5 10.3333,-2.33333 16.5,-5.5 18.5,-9.5 4.6667,1.33333 7.3333,0.66667 8,-2 0.6667,-2.66667 1,-6.66667 1,-12 0,-5.33333 1,-9.33333 3,-12 2.6667,-3.33333 7.6667,-6.33333 15,-9 7.3333,-2.66667 11.6667,-4.33333 13,-5 l 17,-11 c 2,-2.66667 2,-4 0,-4 12,1.33333 22.3333,-2.33333 31,-11 6.6667,-7.33333 4.6667,-14 -6,-20 2,-4 1,-7.16667 -3,-9.5 -4,-2.33333 -9,-4.16667 -15,-5.5 2,-0.66667 5.8333,-0.83333 11.5,-0.5 5.6667,0.33333 9.1667,-0.16667 10.5,-1.5 10,-6.66667 7.6667,-12 -7,-16 -11.3333,-3.33333 -25.6667,0.66667 -43,12 -1.3333,0.66667 -4.5,3.83333 -9.5,9.5 -4.7465,5.37932 -9.0414,8.50146 -12.8867,9.375 -0.2077,0.0752 -0.4131,0.125 -0.6133,0.125 0.2028,-0.0338 0.4079,-0.0783 0.6133,-0.125 1.1756,-0.42536 2.4703,-2.04218 3.8867,-4.875 1.6667,-3.33333 3.3333,-7 5,-11 1.6667,-4 2.8333,-6.33333 3.5,-7 4,-4.66667 11.3333,-9.66667 22,-15 9.3333,-4 26.6667,-8 52,-12 22.6667,-5.33333 39.6667,-1.66667 51,11 -1.3333,-1.33333 1.8333,-5.66667 9.5,-13 7.6667,-7.33333 12.5,-11.33333 14.5,-12 2,-1.33333 7,-2.83333 15,-4.5 8,-1.66667 13,-4.16667 15,-7.5 l 2,-22 c -8,0.66667 -13.8333,-1.66667 -17.5,-7 -3.6667,-5.33333 -5.8333,-12.33333 -6.5,-21 0,1.33333 -2,4 -6,8 0,-4.66667 -1.5,-7.33333 -4.5,-8 -3,-0.66667 -6.8333,-0.33333 -11.5,1 -4.6667,1.33333 -7.6667,1.66667 -9,1 -6.6667,-2 -11.6667,-4.5 -15,-7.5 -3.3333,-3 -6,-8.5 -8,-16.5 -2,-8 -3.3333,-13 -4,-15 -1.3333,-3.33333 -4.5,-7 -9.5,-11 -5,-4 -8.1667,-7.33333 -9.5,-10 -0.6667,-1.33333 -1.5,-3.16667 -2.5,-5.5 -1,-2.33333 -2,-4.5 -3,-6.5 -1,-2 -2.3333,-3.83333 -4,-5.5 -1.6667,-1.66667 -3.5,-2.5 -5.5,-2.5 -2,0 -4.3333,1.66667 -7,5 -2.6667,3.33333 -5.1667,6.66667 -7.5,10 -2.3333,3.33333 -3.8333,5 -4.5,5 -2,-1.33333 -4,-1.83333 -6,-1.5 -2,0.33333 -3.5,0.66667 -4.5,1 -1,0.33333 -2.5,1.33333 -4.5,3 -2,1.66667 -3.6667,2.83333 -5,3.5 -2,1.33333 -4.8333,2.33333 -8.5,3 -3.6667,0.66667 -6.5,1.33333 -8.5,2 10,-3.33333 9.6667,-7 -1,-11 -6.6667,-2.66667 -12,-3.66667 -16,-3 6,-2.66667 8.5,-6.66667 7.5,-12 -1,-5.33333 -3.8333,-10 -8.5,-14 h 5 c -0.6667,-2.66667 -3.5,-5.5 -8.5,-8.5 -5,-3 -10.8333,-5.83333 -17.5,-8.5 -6.6667,-2.66667 -11,-4.66667 -13,-6 -5.3333,-3.33333 -16.6667,-6.5 -34,-9.5 -17.3333,-3 -28.3333,-3.16667 -33,-0.5 -3.3333,4 -4.8333,7.5 -4.5,10.5 0.3333,3 1.6667,7.66667 4,14 2.3333,6.33333 3.5,10.5 3.5,12.5 0.6667,4 -1.1667,8.33333 -5.5,13 -4.3333,4.66667 -6.5,8.66667 -6.5,12 0,4.66667 4.6667,9.83333 14,15.5 9.3333,5.66667 12.6667,12.83333 10,21.5 -2,5.33333 -7.3333,10.66667 -16,16 -8.6667,5.33333 -14,9.33333 -16,12 -3.3333,5.33333 -3.8333,11.5 -1.5,18.5 2.3333,7 5.8333,12.5 10.5,16.5 1.3333,1.33333 1.8333,2.66667 1.5,4 -0.3333,1.33333 -1.5,2.83333 -3.5,4.5 -2,1.66667 -3.8333,3 -5.5,4 -1.6667,1 -3.8333,2.16667 -6.5,3.5 l -3,2 c -7.3333,3.33333 -14.1667,1.33333 -20.5,-6 -6.33333,-7.33333 -10.83333,-16 -13.5,-26 -4.66667,-16.66667 -10,-26.66667 -16,-30 -15.33333,-5.33333 -25,-5 -29,1 -3.33333,-8.66667 -17,-17.33333 -41,-26 -16.66667,-6 -36,-7.33333 -58,-4 4,-0.66667 4,-5.66667 0,-15 -4.66667,-10 -11,-14 -19,-12 2,-4 3.33333,-9.83333 4,-17.5 0.66667,-7.66667 1,-12.16667 1,-13.5 2,-8.66667 6,-16.33333 12,-23 0.66667,-0.66667 3,-3.5 7,-8.5 4,-5 7.16667,-9.5 9.5,-13.5 2.14744,-3.68133 2.45458,-5.66375 0.93164,-5.95703 -0.14598,-0.0163 -0.28514,-0.0262 -0.43164,-0.043 0.15934,0 0.29981,0.0176 0.43164,0.043 C 885.53528,404.61386 902.06279,400.93721 912,391 c 3.33333,-3.33333 7.16667,-9 11.5,-17 4.33333,-8 7.83333,-13.66667 10.5,-17 6,-4 10.66667,-5.83333 14,-5.5 3.33333,0.33333 8.16667,2.16667 14.5,5.5 6.33333,3.33333 11.16667,5 14.5,5 9.33333,0.66667 14.5,-3 15.5,-11 1,-8 -1.5,-14.66667 -7.5,-20 8,0.66667 9,-5 3,-17 -2.66667,-4.66667 -5.33333,-7.66667 -8,-9 -8,-2.66667 -17,-1 -27,5 -5.28369,2.64185 -4.66975,5.28393 1.82422,7.92578 0.0695,0.006 0.12991,0.0284 0.17578,0.0742 -0.062,-0.0248 -0.11477,-0.0494 -0.17578,-0.0742 -0.94114,-0.0869 -4.04743,3.43503 -9.32422,10.57422 -5.66667,7.66667 -11.16667,13.5 -16.5,17.5 -5.33333,4 -10.66667,2.33333 -16,-5 -0.66667,-0.66667 -2.5,-5.16667 -5.5,-13.5 -3,-8.33333 -6.16667,-12.83333 -9.5,-13.5 -5.33333,0 -10.66667,5 -16,15 2,-5.33333 -1.66667,-10.33333 -11,-15 -9.33333,-4.66667 -17.33333,-7.33333 -24,-8 12.66667,-8 10,-17 -8,-27 -4.66667,-2.66667 -11.5,-4.33333 -20.5,-5 -1.125,-0.0833 -2.21094,-0.13542 -3.25781,-0.15625 z m 308.91211,963.35745 c -0.832,0.012 -1.7168,0.1113 -2.6543,0.2988 -5,1 -9,2.5 -12,4.5 -3,2 -6.8333,4.8333 -11.5,8.5 -4.6667,3.6667 -7.6667,5.8333 -9,6.5 -1.3333,0.6667 -4.1667,2.5 -8.5,5.5 -4.3333,3 -7.1667,5.5 -8.5,7.5 -2,2.6667 -4,6.6667 -6,12 -2,5.3333 -3.6667,9 -5,11 -1.3333,-2.6667 -5.1667,-4.8333 -11.5,-6.5 -5.6571,-1.4887 -8.7807,-3.1106 -9.3848,-4.8652 1.2947,6.7549 2.5901,18.1821 3.8848,34.3652 1.3333,16.6667 3,29.3333 5,38 4.6667,20.6667 0.6667,36.6667 -12,48 -18,16.6667 -27.6667,30 -29,40 -2.6667,14.6667 1.3333,23.3333 12,26 0,4.6667 -2.6667,11.5 -8,20.5 -5.3333,9 -7.6667,16.1667 -7,21.5 0,4 0.6667,9.3333 2,16 137.3333,-24 254.3333,-87 351,-189 -2,-2 -6.1667,-3.5 -12.5,-4.5 -6.3333,-1 -10.5,-2.1667 -12.5,-3.5 -12,-4.6667 -20,-7.3333 -24,-8 0.6667,-4.6667 -0.1667,-9 -2.5,-13 -2.3333,-4 -5,-7 -8,-9 -3,-2 -7.1667,-4.6667 -12.5,-8 -5.3333,-3.3333 -9,-5.6667 -11,-7 -1.3333,-1.3333 -3.6667,-3.3333 -7,-6 -3.3333,-2.6667 -5.6667,-4.5 -7,-5.5 -1.3333,-1 -3.8333,-2.5 -7.5,-4.5 -3.6667,-2 -6.5,-2.6667 -8.5,-2 -2,0.6667 -5.3333,1 -10,1 l -3,1 c -2,0.6667 -3.8333,1.5 -5.5,2.5 -1.6667,1 -3.5,2 -5.5,3 -2,1 -3.3333,2 -4,3 -0.6667,1 -0.6667,1.8333 0,2.5 -14,-11.3333 -26,-18.6667 -36,-22 -3.3333,-0.6667 -7,-2.5 -11,-5.5 -4,-3 -7.5,-5.3333 -10.5,-7 -3,-1.6667 -6.3333,-2.1667 -10,-1.5 -3.6667,0.6667 -7.5,3 -11.5,7 -3.3333,3.3333 -5.3333,8.3333 -6,15 -0.6667,6.6667 -1.3333,11 -2,13 -4.6667,-3.3333 -4.6667,-9.1667 0,-17.5 4.6667,-8.3333 5.3333,-14.5 2,-18.5 -1.625,-3.25 -4.2402,-4.8496 -7.8457,-4.7988 z"
       style="opacity:1;fill:#ffffff;fill-opacity:1;fill-rule:nonzero;stroke:none;stroke-width:1.03699994;stroke-linecap:square;stroke-linejoin:miter;stroke-miterlimit:4;stroke-dasharray:none;stroke-opacity:1"
       inkscape:connector-curvature="0" />
    <path
       id="path2-3"
       d="m 896,127.99999 q 209,0 385.5,103 176.5,103 279.5,279.5 103,176.5 103,385.50001 0,209 -103,385.5 Q 1458,1458 1281.5,1561 1105,1664 896,1664 687,1664 510.5,1561 334,1458 231,1281.5 128,1105 128,896 q 0,-209.00001 103,-385.50001 103,-176.5 279.5,-279.5 176.5,-103 385.5,-103 z m 274,521 q -2,1 -9.5,9.5 -7.5,8.5 -13.5,9.5 2,0 4.5,-5 2.5,-5 5,-11 2.5,-6 3.5,-7 6,-7 22,-15 14,-6 52,-12 34,-8 51,11 -2,-2 9.5,-13 11.5,-11 14.5,-12 3,-2 15,-4.5 12,-2.5 15,-7.5 l 2,-22 q -12,1 -17.5,-7 -5.5,-8 -6.5,-21 0,2 -6,8 0,-7 -4.5,-8 -4.5,-1 -11.5,1 -7,2 -9,1 -10,-3 -15,-7.5 -5,-4.5 -8,-16.5 -3,-12 -4,-15 -2,-5 -9.5,-11 -7.5,-6 -9.5,-10 -1,-2 -2.5,-5.5 -1.5,-3.5 -3,-6.5 -1.5,-3 -4,-5.5 -2.5,-2.5 -5.5,-2.5 -3,0 -7,5 -4,5 -7.5,10 -3.5,5 -4.5,5 -3,-2 -6,-1.5 -3,0.5 -4.5,1 -1.5,0.5 -4.5,3 -3,2.5 -5,3.5 -3,2 -8.5,3 -5.5,1 -8.5,2 15,-5 -1,-11 -10,-4 -16,-3 9,-4 7.5,-12 -1.5,-8 -8.5,-14 h 5 q -1,-4 -8.5,-8.5 -7.5,-4.5 -17.5,-8.5 -10,-4 -13,-6 -8,-5 -34,-9.5 -26,-4.5 -33,-0.5 -5,6 -4.5,10.5 0.5,4.5 4,14 3.5,9.5 3.5,12.5 1,6 -5.5,13 -6.5,7 -6.5,12 0,7 14,15.5 14,8.5 10,21.5 -3,8 -16,16 -13,8 -16,12 -5,8 -1.5,18.5 3.5,10.5 10.5,16.5 2,2 1.5,4 -0.5,2 -3.5,4.5 -3,2.5 -5.5,4 -2.5,1.5 -6.5,3.5 l -3,2 q -11,5 -20.5,-6 -9.5,-11 -13.5,-26 -7,-25 -16,-30 -23,-8 -29,1 -5,-13 -41,-26 -25,-9 -58,-4 6,-1 0,-15 -7,-15 -19,-12 3,-6 4,-17.5 1,-11.5 1,-13.5 3,-13 12,-23 1,-1 7,-8.5 6,-7.5 9.5,-13.5 3.5,-6 0.5,-6 35,4 50,-11 5,-5 11.5,-17 6.5,-12 10.5,-17 9,-6 14,-5.5 5,0.5 14.5,5.5 9.5,5 14.5,5 14,1 15.5,-11 1.5,-12 -7.5,-20 12,1 3,-17 -4,-7 -8,-9 -12,-4 -27,5 -8,4 2,8 -1,-1 -9.5,10.5 -8.5,11.5 -16.5,17.5 -8,6 -16,-5 -1,-1 -5.5,-13.5 -4.5,-12.5 -9.5,-13.5 -8,0 -16,15 3,-8 -11,-15 -14,-7 -24,-8 19,-12 -8,-27 -7,-4 -20.5,-5 -13.5,-1 -19.5,4 -5,7 -5.5,11.5 -0.5,4.5 5,8 5.5,3.5 10.5,5.5 5,2 11.5,4 6.5,2 8.5,3 14,10 8,14 -2,1 -8.5,3.5 -6.5,2.5 -11.5,4.5 -5,2 -6,4 -3,4 0,14 3,10 -2,14 -5,-5 -9,-17.5 -4,-12.5 -7,-16.5 7,9 -25,6 l -10,-1 q -4,0 -16,2 -12,2 -20.5,1 -8.5,-1 -13.5,-8 -4,-8 0,-20 1,-4 4,-2 -4,-3 -11,-9.5 -7,-6.5 -10,-8.5 -46,15 -94,41 6,1 12,-1 5,-2 13,-6.5 8,-4.5 10,-5.5 34,-14 42,-7 l 5,-5 q 14,16 20,25 -7,-4 -30,-1 -20,6 -22,12 7,12 5,18 -4,-3 -11.5,-10 -7.5,-7 -14.5,-11 -7,-4 -15,-5 -16,0 -22,1 -146,80 -235,222 7,7 12,8 4,1 5,9 1,8 2.5,11 1.5,3 11.5,-3 9,8 3,19 1,-1 44,27 19,17 21,21 3,11 -10,18 -1,-2 -9,-9 -8,-7 -9,-4 -3,5 0.5,18.5 3.5,13.5 10.5,12.5 -7,0 -9.5,16 -2.5,16 -2.5,35.5 Q 424,756 423,760 l 2,1 q -3,12 5.5,34.5 8.5,22.5 21.5,19.5 -13,3 20,43 6,8 8,9 3,2 12,7.5 9,5.5 15,10 6,4.5 10,10.5 4,5 10,22.5 6,17.5 14,23.5 -2,6 9.5,20 11.5,14 10.5,23 -1,0 -2.5,1 -1.5,1 -2.5,1 3,7 15.5,14 12.5,7 15.5,13 1,3 2,10 1,7 3,11 2,4 8,2 2,-20 -24,-62 -15,-25 -17,-29 -3,-5 -5.5,-15.5 Q 551,919 549,915 q 2,0 6,1.5 4,1.5 8.5,3.5 4.5,2 7.5,4 3,2 2,3 -3,7 2,17.5 5,10.5 12,18.5 7,8 17,19 10,11 12,13 6,6 14,19.5 8,13.5 0,13.5 9,0 20,10.5 11,10.5 17,19.5 5,8 8,26 3,18 5,24 2,7 8.5,13.5 6.5,6.5 12.5,9.5 l 16,8 13,7 q 5,2 18.5,10.5 13.5,8.5 21.5,11.5 10,4 16,4 6,0 14.5,-2.5 8.5,-2.5 13.5,-3.5 15,-2 29,15 14,17 21,21 36,19 55,11 -2,1 0.5,7.5 2.5,6.5 8,15.5 5.5,9 9,14.5 3.5,5.5 5.5,8.5 5,6 18,15 13,9 18,15 6,-4 7,-9 -3,8 7,20 10,12 18,10 14,-3 14,-32 -31,15 -49,-18 0,-1 -2.5,-5.5 -2.5,-4.5 -4,-8.5 -1.5,-4 -2.5,-8.5 -1,-4.5 0,-7.5 1,-3 5,-3 9,0 10,-3.5 1,-3.5 -2,-12.5 -3,-9 -4,-13 -1,-8 -11,-20 -10,-12 -12,-15 -5,9 -16,8 -11,-1 -16,-9 0,1 -1.5,5.5 -1.5,4.5 -1.5,6.5 -13,0 -15,-1 1,-3 2.5,-17.5 1.5,-14.5 3.5,-22.5 1,-4 5.5,-12 4.5,-8 7.5,-14.5 3,-6.5 4,-12.5 1,-6 -4.5,-9.5 -5.5,-3.5 -17.5,-2.5 -19,1 -26,20 -1,3 -3,10.5 -2,7.5 -5,11.5 -3,4 -9,7 -7,3 -24,2 -17,-1 -24,-5 -13,-8 -22.5,-29 -9.5,-21 -9.5,-37 0,-10 2.5,-26.5 2.5,-16.5 3,-25 0.5,-8.5 -5.5,-24.5 3,-2 9,-9.5 6,-7.5 10,-10.5 2,-1 4.5,-1.5 2.5,-0.5 4.5,0 2,0.5 4,-1.5 2,-2 3,-6 -1,-1 -4,-3 -3,-3 -4,-3 7,3 28.5,-1.5 21.5,-4.5 27.5,1.5 15,11 22,-2 0,-1 -2.5,-9.5 Q 880,931 882,926 q 5,27 29,9 3,3 15.5,5 12.5,2 17.5,5 3,2 7,5.5 4,3.5 5.5,4.5 1.5,1 5,-0.5 3.5,-1.5 8.5,-6.5 10,14 12,24 11,40 19,44 7,3 11,2 4,-1 4.5,-9.5 0.5,-8.5 0,-14 Q 1016,989 1015,982 l -1,-8 v -18 l -1,-8 q -15,-3 -18.5,-12 -3.5,-9 1.5,-18.5 5,-9.5 15,-18.5 1,-1 8,-3.5 7,-2.5 15.5,-6.5 8.5,-4 12.5,-8 21,-19 15,-35 7,0 11,-9 -1,0 -5,-3 -4,-3 -7.5,-5 -3.5,-2 -4.5,-2 9,-5 2,-16 5,-3 7.5,-11 2.5,-8 7.5,-10 9,12 21,2 8,-8 1,-16 5,-7 20.5,-10.5 15.5,-3.5 18.5,-9.5 7,2 8,-2 1,-4 1,-12 0,-8.00001 3,-12.00001 4,-5 15,-9 11,-4 13,-5 l 17,-11 q 3,-4 0,-4 18,2 31,-11 10,-11 -6,-20 3,-6 -3,-9.5 -6,-3.5 -15,-5.5 3,-1 11.5,-0.5 8.5,0.5 10.5,-1.5 15,-10 -7,-16 -17,-5 -43,12 z M 1007,1526 q 206,-36 351,-189 -3,-3 -12.5,-4.5 -9.5,-1.5 -12.5,-3.5 -18,-7 -24,-8 1,-7 -2.5,-13 -3.5,-6 -8,-9 -4.5,-3 -12.5,-8 -8,-5 -11,-7 -2,-2 -7,-6 -5,-4 -7,-5.5 -2,-1.5 -7.5,-4.5 -5.5,-3 -8.5,-2 -3,1 -10,1 l -3,1 q -3,1 -5.5,2.5 -2.5,1.5 -5.5,3 -3,1.5 -4,3 -1,1.5 0,2.5 -21,-17 -36,-22 -5,-1 -11,-5.5 -6,-4.5 -10.5,-7 -4.5,-2.5 -10,-1.5 -5.5,1 -11.5,7 -5,5 -6,15 -1,10 -2,13 -7,-5 0,-17.5 7,-12.5 2,-18.5 -3,-6 -10.5,-4.5 -7.5,1.5 -12,4.5 -4.5,3 -11.5,8.5 -7,5.5 -9,6.5 -2,1 -8.5,5.5 -6.5,4.5 -8.5,7.5 -3,4 -6,12 -3,8 -5,11 -2,-4 -11.5,-6.5 -9.5,-2.5 -9.5,-5.5 2,10 4,35 2,25 5,38 7,31 -12,48 -27,25 -29,40 -4,22 12,26 0,7 -8,20.5 -8,13.5 -7,21.5 0,6 2,16 z"
       style="fill:#ffffff;fill-opacity:0.50588223"
       inkscape:connector-curvature="0" />
  </g>
</svg>
