<?xml version="1.0" encoding="UTF-8" standalone="no"?>
<!-- Generator: Adobe Illustrator 18.0.0, SVG Export Plug-In . SVG Version: 6.00 Build 0)  -->

<svg
   xmlns:dc="http://purl.org/dc/elements/1.1/"
   xmlns:cc="http://creativecommons.org/ns#"
   xmlns:rdf="http://www.w3.org/1999/02/22-rdf-syntax-ns#"
   xmlns:svg="http://www.w3.org/2000/svg"
   xmlns="http://www.w3.org/2000/svg"
   xmlns:sodipodi="http://sodipodi.sourceforge.net/DTD/sodipodi-0.dtd"
   xmlns:inkscape="http://www.inkscape.org/namespaces/inkscape"
   version="1.1"
   id="Layer_1"
   x="0px"
   y="0px"
   viewBox="0 0 132.01252 132.01253"
   width="64"
   height="64"
   enable-background="new 0 0 724.7 587.1"
   xml:space="preserve"
   sodipodi:docname="weibo.svg"
   inkscape:version="0.92.3 (2405546, 2018-03-11)"><metadata
   id="metadata17"><rdf:RDF><cc:Work
       rdf:about=""><dc:format>image/svg+xml</dc:format><dc:type
         rdf:resource="http://purl.org/dc/dcmitype/StillImage" /><dc:title></dc:title></cc:Work></rdf:RDF></metadata><defs
   id="defs15" /><sodipodi:namedview
   pagecolor="#ffffff"
   bordercolor="#666666"
   borderopacity="1"
   objecttolerance="10"
   gridtolerance="10"
   guidetolerance="10"
   inkscape:pageopacity="0"
   inkscape:pageshadow="2"
   inkscape:window-width="1575"
   inkscape:window-height="831"
   id="namedview13"
   showgrid="false"
   inkscape:pagecheckerboard="true"
   inkscape:zoom="4.6904022"
   inkscape:cx="24.572382"
   inkscape:cy="29.749923"
   inkscape:window-x="0"
   inkscape:window-y="0"
   inkscape:window-maximized="0"
   inkscape:current-layer="Layer_1" />









<g
   id="g828"
   transform="matrix(0.18215329,0,0,0.18215329,1.1920781e-6,12.5373)"><path
     style="fill:#ffffff;fill-opacity:0.50588223"
     id="path4"
     d="M 304.5,544.1 C 184.5,556 80.9,501.7 73.1,423 65.3,344.2 156.3,270.8 276.2,258.9 396.2,247 499.8,301.3 507.5,380 c 7.9,78.8 -83.1,152.3 -203,164.1 M 544.4,282.6 c -10.2,-3.1 -17.2,-5.1 -11.9,-18.5 11.6,-29.1 12.8,-54.2 0.2,-72.2 -23.5,-33.6 -87.9,-31.8 -161.7,-0.9 0,0 -23.2,10.1 -17.2,-8.2 11.3,-36.5 9.6,-67 -8,-84.7 C 305.8,58 199.3,99.6 108,190.9 39.7,259.2 0,331.7 0,394.4 c 0,119.8 153.7,192.7 304,192.7 197.1,0 328.2,-114.5 328.2,-205.4 0.1,-55 -46.2,-86.2 -87.8,-99.1"
     inkscape:connector-curvature="0" /><path
     style="fill:#ffffff"
     id="path6"
     d="M 675.3,63.3 C 627.7,10.5 557.5,-9.6 492.7,4.2 v 0 c -15,3.2 -24.5,18 -21.3,32.9 3.2,15 17.9,24.5 32.9,21.3 46.1,-9.8 96,4.5 129.8,42 33.8,37.5 43,88.6 28.5,133.4 v 0 c -4.7,14.6 3.3,30.2 17.9,34.9 14.6,4.7 30.2,-3.3 34.9,-17.8 0,0 0,-0.1 0,-0.1 20.4,-62.9 7.5,-134.8 -40.1,-187.5"
     inkscape:connector-curvature="0" /><path
     style="fill:#ffffff"
     id="path8"
     d="M 602.2,129.3 C 579,103.6 544.8,93.8 513.3,100.6 c -12.9,2.7 -21.1,15.5 -18.4,28.4 2.8,12.9 15.5,21.1 28.3,18.3 v 0 c 15.4,-3.3 32.2,1.5 43.5,14 11.3,12.6 14.4,29.7 9.5,44.7 v 0 c -4,12.5 2.8,26 15.4,30.1 12.6,4 26,-2.8 30.1,-15.4 9.9,-30.7 3.7,-65.7 -19.5,-91.4"
     inkscape:connector-curvature="0" /><path
     style="fill:#ffffff"
     id="path10"
     d="m 311.1,401.5 c -4.2,7.2 -13.5,10.6 -20.7,7.6 -7.2,-2.9 -9.4,-11 -5.3,-18 4.2,-7 13.1,-10.4 20.2,-7.6 7.2,2.6 9.8,10.7 5.8,18 m -38.3,49 c -11.6,18.5 -36.5,26.6 -55.2,18.1 -18.4,-8.4 -23.9,-29.9 -12.3,-48 11.5,-18 35.5,-26 54.1,-18.2 18.8,8.1 24.8,29.4 13.4,48.1 m 43.6,-131 c -57.1,-14.9 -121.6,13.6 -146.4,63.9 -25.3,51.3 -0.8,108.3 56.8,126.9 59.8,19.3 130.2,-10.3 154.7,-65.6 24.2,-54.2 -6,-109.9 -65.1,-125.2"
     inkscape:connector-curvature="0" /></g>

</svg>